<svg width="826" height="388" viewBox="0 0 400 200" fill="none" xmlns="http://www.w3.org/2000/svg">
<g>
<path d="M143.36 1.81577L112.799 95.8806H95.8207L73.1829 26.1491L50.5451 95.8806H33.1895L2.62842 1.81577H20.7387L42.6219 71.9104L65.2597 1.81577H80.7289L103.367 71.9104L125.25 1.81577H142.606H143.36Z" fill="white"/>
<path d="M153.55 48.6668C153.55 19.612 175.056 0 206.749 0C238.442 0 260.325 19.612 260.325 48.6668C260.325 77.7215 238.819 97.3335 206.749 97.3335C174.679 97.3335 153.55 77.7215 153.55 48.6668ZM242.592 48.6668C242.592 28.3284 228.255 14.8906 206.749 14.8906C185.243 14.8906 170.906 28.3284 170.906 48.6668C170.906 69.0051 185.243 82.4429 206.749 82.4429C228.255 82.4429 242.592 69.0051 242.592 48.6668Z" fill="white"/>
<path d="M356.909 95.8806L330.121 59.199H298.428V95.8806H281.073V1.81577H339.176C360.682 1.81577 372.379 11.9849 372.379 30.5074C372.379 49.0298 364.455 55.2039 349.741 58.1094L377.283 95.8806H356.532H356.909ZM298.806 44.6716H337.29C349.363 44.6716 355.4 39.9502 355.4 30.5074C355.4 21.0646 349.363 16.3432 337.29 16.3432H298.806V44.6716Z" fill="white"/>
<path d="M439.54 47.9402L413.884 69.7313V95.8806H396.528V1.81577H413.884V50.1193L470.855 1.81577H494.625L452.368 37.0447L496.134 95.8806H475.006L439.54 47.9402Z" fill="white"/>
<path d="M531.224 16.3432V41.4029H591.214V55.9303H531.224V81.7164H600.269V96.2438H513.868V1.81577H600.269V16.3432H531.224Z" fill="white"/>
<path d="M696.478 95.8806L669.69 59.199H637.997V95.8806H620.642V1.81577H678.745C700.251 1.81577 711.947 11.9849 711.947 30.5074C711.947 49.0298 704.024 55.2039 689.31 58.1094L716.852 95.8806H696.101H696.478ZM637.997 44.6716H676.482C688.555 44.6716 694.592 39.9502 694.592 30.5074C694.592 21.0646 688.555 16.3432 676.482 16.3432H637.997V44.6716Z" fill="white"/>
<path d="M728.927 83.8957L736.473 70.4578C747.792 78.4479 762.129 82.4429 777.221 82.4429C792.313 82.4429 804.764 77.7215 804.764 68.6419C804.764 59.5623 797.595 57.7464 776.089 56.2936C744.774 54.1145 733.455 46.4876 733.455 28.6916C733.455 10.8955 749.301 0 776.467 0C799.021 0 806.273 3.99503 817.215 11.2587L810.423 24.3334C800.991 17.7961 789.295 14.5274 776.467 14.5274C763.639 14.5274 751.188 19.612 751.188 27.9652C751.188 36.3185 757.979 38.8608 779.862 40.3135C811.178 42.4926 822.874 50.1195 822.874 67.9155C822.874 85.7116 807.028 97.3335 777.599 97.3335C748.169 97.3335 742.133 92.6121 729.305 83.8957H728.927Z" fill="white"/>
<path d="M2.25049 142.183C2.25049 122.934 15.8332 110.949 37.3391 110.949C53.0388 111.361 60.028 116.487 60.9599 116.953L55.8267 128.019C49.7899 124.387 44.5078 122.934 38.471 122.934C25.2656 122.934 16.9651 130.198 16.9651 141.82C16.9651 153.442 25.2656 160.705 39.2256 160.705C51.641 159.82 53.9707 157.49 57.7132 155.621L62.2407 166.516C56.204 170.511 47.9034 172.69 38.0937 172.69C15.4559 172.69 2.25049 161.068 2.25049 142.183Z" fill="white"/>
<path d="M69.4087 141.82C69.4087 123.297 82.9914 110.949 103.743 110.949C124.494 110.949 138.077 123.297 138.077 141.82C138.077 160.342 124.494 172.69 103.743 172.69C82.9914 172.69 69.4087 160.342 69.4087 141.82ZM123.362 141.82C123.362 130.561 115.439 122.934 103.743 122.934C92.0465 122.934 84.1233 130.561 84.1233 141.82C84.1233 153.078 92.0465 160.705 103.743 160.705C115.439 160.705 123.362 153.078 123.362 141.82Z" fill="white"/>
<path d="M226.743 171.601H212.406V128.019L192.786 171.601H182.977L163.357 128.019V171.601H149.774V111.675H169.394L188.259 153.078L206.746 111.675H226.743V171.601Z" fill="white"/>
<path d="M300.692 131.65C300.692 144.362 292.392 151.262 277.677 151.262H256.926V171.601H242.588V111.675H277.677C292.769 111.675 300.692 118.576 300.692 131.287V131.65ZM285.978 131.65C285.978 126.203 282.959 123.66 275.79 123.66H256.548V139.641H275.79C282.959 139.641 285.978 137.098 285.978 131.65Z" fill="white"/>
<path d="M326.724 123.66V135.645H362.568V147.267H326.724V159.615H368.604V171.237H312.387V111.312H368.604V122.934H326.724V123.66Z" fill="white"/>
<path d="M441.049 112.038V171.964H427.844L394.264 128.745V171.964H380.682V112.038H397.66L427.466 150.536V112.038H441.049Z" fill="white"/>
<path d="M452.368 164.337L458.027 153.442C465.573 158.163 474.251 160.705 483.683 160.705C493.116 160.705 498.775 158.526 498.775 154.168C498.775 149.81 495.757 148.72 482.929 147.631C462.177 145.815 455.386 141.093 455.386 129.108C455.386 117.123 465.95 110.223 483.306 110.223C495.951 110.223 502.548 112.765 510.094 117.486L504.812 128.019C498.775 124.024 491.607 122.208 483.683 122.208C475.76 122.208 469.723 124.75 469.723 128.745C469.723 132.74 472.742 134.193 485.57 135.282C506.321 137.098 513.112 141.82 513.112 153.805C513.112 165.79 502.925 172.69 483.683 172.69C464.441 172.69 461.046 169.785 452.368 164.337Z" fill="white"/>
<path d="M567.82 158.889H539.9L534.241 171.601H519.526L547.069 111.675H561.784L589.326 171.601H573.857L568.198 158.889H567.82ZM544.805 147.631H562.916L553.86 125.84L544.805 147.631Z" fill="white"/>
<path d="M644.786 123.66H621.771V171.601H607.433V123.66H584.418V112.038H644.786V123.66Z" fill="white"/>
<path d="M655.727 112.038H670.064V171.964H655.727V112.038Z" fill="white"/>
<path d="M682.519 141.82C682.519 123.297 696.102 110.949 716.853 110.949C737.604 110.949 751.187 123.297 751.187 141.82C751.187 160.342 737.604 172.69 716.853 172.69C696.102 172.69 682.519 160.342 682.519 141.82ZM736.095 141.82C736.095 130.561 728.172 122.934 716.476 122.934C704.78 122.934 696.856 130.561 696.856 141.82C696.856 153.078 704.78 160.705 716.476 160.705C728.172 160.705 736.095 153.078 736.095 141.82Z" fill="white"/>
<path d="M823.25 112.038V171.964H810.045L776.466 128.745V171.964H762.883V112.038H779.861L809.668 150.536V112.038H823.25Z" fill="white"/>
<path d="M9.79492 310.497V195.367H53.1841V303.959C53.1841 331.562 68.6533 344.636 100.723 344.636C132.794 344.636 148.263 331.925 148.263 303.959V195.367H189.766V310.497C189.766 355.532 157.318 380.955 99.2143 380.955C41.1106 380.955 9.79492 355.532 9.79492 310.497Z" fill="white"/>
<path d="M404.827 231.323H334.649V378.049H291.26V231.323H221.083V195.367H405.204V231.323H404.827Z" fill="white"/>
<path d="M539.143 339.552H453.497L436.518 378.049H390.865L475.002 195.367H519.523L603.661 378.049H556.121L539.143 339.552ZM468.966 304.323H524.051L496.886 237.86L469.343 304.323H468.966Z" fill="white"/>
<path d="M819.474 195.367V378.049H776.085V304.323H679.12V378.049H635.73V195.367H679.12V268.004H776.085V195.367H819.474Z" fill="white"/>
</g>
<defs>
<filter id="filter0_d_1088_12890" x="0.000169039" y="0" width="825.501" height="387.706" filterUnits="userSpaceOnUse" color-interpolation-filters="sRGB">
<feFlood flood-opacity="0" result="BackgroundImageFix"/>
<feColorMatrix in="SourceAlpha" type="matrix" values="0 0 0 0 0 0 0 0 0 0 0 0 0 0 0 0 0 0 127 0" result="hardAlpha"/>
<feOffset dy="4.50064"/>
<feGaussianBlur stdDeviation="1.12516"/>
<feComposite in2="hardAlpha" operator="out"/>
<feColorMatrix type="matrix" values="0 0 0 0 0 0 0 0 0 0 0 0 0 0 0 0 0 0 0.08 0"/>
<feBlend mode="normal" in2="BackgroundImageFix" result="effect1_dropShadow_1088_12890"/>
<feBlend mode="normal" in="SourceGraphic" in2="effect1_dropShadow_1088_12890" result="shape"/>
</filter>
</defs>
</svg>
